<?xml version="1.0" encoding="utf-8"?>
<!-- Generator: Adobe Illustrator 16.0.0, SVG Export Plug-In . SVG Version: 6.00 Build 0)  -->
<!DOCTYPE svg PUBLIC "-//W3C//DTD SVG 1.1//EN" "http://www.w3.org/Graphics/SVG/1.1/DTD/svg11.dtd">
<svg version="1.1" id="Capa_1" focusable="false" xmlns="http://www.w3.org/2000/svg" xmlns:xlink="http://www.w3.org/1999/xlink"
	 x="0px" y="0px" width="612px" height="792px" viewBox="0 0 612 792" enable-background="new 0 0 612 792" xml:space="preserve">
<path fill="#FFFFFF" d="M21.857,226.607h568.286c12.072,0,21.857-9.785,21.857-21.857v-54.643c0-12.072-9.785-21.857-21.857-21.857
	H21.857C9.785,128.25,0,138.035,0,150.107v54.643C0,216.822,9.785,226.607,21.857,226.607z M21.857,445.179h568.286
	c12.072,0,21.857-9.785,21.857-21.857v-54.643c0-12.072-9.785-21.857-21.857-21.857H21.857C9.785,346.821,0,356.606,0,368.679
	v54.643C0,435.394,9.785,445.179,21.857,445.179z M21.857,663.75h568.286c12.072,0,21.857-9.785,21.857-21.857V587.25
	c0-12.072-9.785-21.857-21.857-21.857H21.857C9.785,565.393,0,575.178,0,587.25v54.643C0,653.965,9.785,663.75,21.857,663.75z"/>
</svg>
