<svg width="26" height="17" viewBox="0 0 26 17" fill="none" xmlns="http://www.w3.org/2000/svg">
<g id="Frame" clip-path="url(#clip0_27905_4283)">
<path id="Vector" d="M3.75938 16.3892C3.07813 16.3892 2.45 16.211 1.875 15.8547C1.3 15.4983 0.84375 15.0179 0.50625 14.4135C0.16875 13.809 0 13.1504 0 12.4378C0 11.7888 0.140625 11.1811 0.421875 10.6148C0.709375 10.0485 1.1 9.58402 1.59375 9.22134C1.4875 8.84593 1.43438 8.47051 1.43438 8.0951C1.43438 7.38245 1.60313 6.72389 1.94063 6.11942C2.27813 5.51494 2.73438 5.03772 3.30938 4.68776C3.88438 4.33144 4.50938 4.15328 5.18438 4.15328C5.28438 4.15328 5.43438 4.15964 5.63438 4.17236C6.19063 3.23065 6.93125 2.48619 7.85625 1.93898C8.7875 1.39177 9.7875 1.11816 10.8563 1.11816C11.9625 1.11816 12.9875 1.41086 13.9313 1.99625C14.875 2.57527 15.6219 3.36109 16.1719 4.35371C16.7281 5.34632 17.0063 6.42802 17.0063 7.59879C17.5563 8.06329 17.9844 8.63277 18.2906 9.30724C18.5969 9.98171 18.75 10.6975 18.75 11.4547C18.75 12.3455 18.5375 13.1695 18.1125 13.9267C17.6938 14.6839 17.125 15.282 16.4063 15.721C15.6938 16.1664 14.9125 16.3892 14.0625 16.3892H3.75938ZM14.0625 14.9575C14.6562 14.9575 15.2031 14.8016 15.7031 14.4898C16.2094 14.1717 16.6094 13.7454 16.9031 13.2109C17.1969 12.67 17.3438 12.0846 17.3438 11.4547C17.3438 10.8184 17.1969 10.233 16.9031 9.69856C16.6094 9.15771 16.2156 8.73139 15.7219 8.41961C15.6656 8.3878 15.625 8.3528 15.6 8.31462C15.5813 8.27644 15.5719 8.22554 15.5719 8.16191C15.5719 8.10465 15.575 8.02511 15.5813 7.9233C15.5938 7.8215 15.6 7.71969 15.6 7.61788C15.6 6.70162 15.3875 5.85536 14.9625 5.07908C14.5375 4.3028 13.9594 3.68878 13.2281 3.23702C12.5031 2.77889 11.7125 2.54982 10.8563 2.54982C10.2063 2.54982 9.59063 2.68344 9.00938 2.95069C8.42813 3.21156 7.91875 3.58061 7.48125 4.05783C7.04375 4.53505 6.70625 5.07908 6.46875 5.68992C6.43125 5.79173 6.375 5.84263 6.3 5.84263C6.25625 5.84263 6.2125 5.8299 6.16875 5.80445C5.8625 5.65811 5.53438 5.58493 5.18438 5.58493C4.75938 5.58493 4.36562 5.69628 4.00313 5.91898C3.64687 6.14169 3.3625 6.44711 3.15 6.83524C2.94375 7.21702 2.84063 7.63697 2.84063 8.0951C2.84063 8.40052 2.8875 8.69322 2.98125 8.97318C3.08125 9.24679 3.21875 9.49494 3.39375 9.71764C3.4375 9.76855 3.45938 9.81627 3.45938 9.86081C3.45938 9.91808 3.40625 9.95625 3.3 9.97534C2.94375 10.0453 2.62188 10.198 2.33438 10.4335C2.04688 10.6689 1.81875 10.9616 1.65 11.3115C1.4875 11.6615 1.40625 12.0369 1.40625 12.4378C1.40625 12.8959 1.50938 13.319 1.71563 13.7072C1.92813 14.089 2.21563 14.3944 2.57812 14.6234C2.94062 14.8461 3.33438 14.9575 3.75938 14.9575H14.0625ZM9.60938 13.0486C9.42188 13.0486 9.25625 12.9754 9.1125 12.8291L6.3 9.97534C6.1625 9.83536 6.09375 9.66992 6.09375 9.47904C6.09375 9.28179 6.1625 9.11317 6.3 8.97318C6.44375 8.82684 6.6125 8.75366 6.80625 8.75366C6.99375 8.75366 7.15625 8.82365 7.29375 8.96364L8.90625 10.5957V6.60618C8.90625 6.40257 8.97188 6.23395 9.10313 6.10033C9.24063 5.96034 9.40938 5.89035 9.60938 5.89035C9.79063 5.89035 9.95625 5.96034 10.1063 6.10033C10.2438 6.22759 10.3125 6.3962 10.3125 6.60618V10.5957L11.9344 8.96364C12.0719 8.82365 12.2344 8.75366 12.4219 8.75366C12.5969 8.75366 12.7688 8.8332 12.9375 8.99227C13.0625 9.11317 13.125 9.27224 13.125 9.46949C13.125 9.6731 13.0563 9.84172 12.9188 9.97534L10.1063 12.8291C9.95 12.9754 9.78438 13.0486 9.60938 13.0486Z" fill="#1264A3"/>
</g>
<defs>
<clipPath id="clip0_27905_4283">
<rect width="25.8289" height="16" fill="white" transform="translate(0 0.653809)"/>
</clipPath>
</defs>
</svg>
