<svg xmlns="http://www.w3.org/2000/svg" width="1350" height="20" viewBox="0 0 1350 20" fill="none">
<path d="M19.9956 3.79813C19.26 4.125 18.4706 4.34563 17.6394 4.44375C18.4863 3.93625 19.1369 3.1325 19.4438 2.175C18.65 2.64375 17.7731 2.9875 16.8388 3.17C16.09 2.37313 15.0238 1.875 13.8438 1.875C11.5775 1.875 9.74189 3.71125 9.74189 5.97687C9.74189 6.29812 9.77751 6.61188 9.84814 6.91187C6.43752 6.73938 3.41501 5.10625 1.39189 2.625C1.03876 3.23125 0.83564 3.93625 0.83564 4.6875C0.83564 6.1125 1.56064 7.36688 2.66064 8.10313C1.98814 8.08125 1.35564 7.89688 0.802515 7.59063V7.64062C0.802515 9.62937 2.21501 11.2875 4.09251 11.6644C3.74876 11.7581 3.38626 11.8081 3.01126 11.8081C2.74689 11.8081 2.49064 11.7831 2.24064 11.735C2.76189 13.3637 4.27814 14.55 6.07189 14.5837C4.66877 15.6838 2.90001 16.34 0.97814 16.34C0.64689 16.34 0.320015 16.3213 -0.000610352 16.2838C1.81564 17.4463 3.97189 18.125 6.28876 18.125C13.8338 18.125 17.9606 11.875 17.9606 6.45312C17.9606 6.27562 17.9556 6.09813 17.9481 5.92188C18.75 5.34375 19.445 4.62188 19.9956 3.79813Z" fill="black"/>
<path fill-rule="evenodd" clip-rule="evenodd" d="M108.894 -9.7675e-07H91.1063C90.9609 -0.000330609 90.8169 0.0280584 90.6825 0.0835359C90.5482 0.139013 90.4261 0.220487 90.3233 0.323277C90.2205 0.426068 90.139 0.548151 90.0835 0.682516C90.0281 0.816881 89.9997 0.960882 90 1.10625V18.8937C90 19.5062 90.4938 20 91.1063 20H100.68V12.2537H98.0675V9.25375H100.68V7.025C100.68 4.43875 102.268 3.03875 104.56 3.03875C105.654 3.03875 106.614 3.105 106.894 3.15875V5.8525H105.28C104.026 5.8525 103.8 6.43875 103.8 7.31875V9.2525H106.774L106.386 12.2525H103.8V20H108.894C109.506 20 110 19.5062 110 18.8937V1.10625C110 0.960882 109.972 0.816881 109.916 0.682516C109.861 0.548151 109.78 0.426068 109.677 0.323277C109.574 0.220487 109.452 0.139013 109.317 0.0835359C109.183 0.0280584 109.039 -0.000330609 108.894 -9.7675e-07Z" fill="black"/>
<path d="M199.794 5.7375C199.794 5.7375 199.599 4.26625 199 3.61875C198.239 2.77 197.388 2.765 196.996 2.71688C194.198 2.5 190.001 2.5 190.001 2.5H189.992C189.992 2.5 185.795 2.5 182.998 2.71688C182.607 2.765 181.756 2.77 180.994 3.61875C180.397 4.26625 180.2 5.7375 180.2 5.7375C180.2 5.7375 180 7.4625 180 9.1875V10.8063C180 12.5325 180.2 14.2575 180.2 14.2575C180.2 14.2575 180.395 15.7275 180.994 16.3737C181.756 17.2225 182.754 17.1969 183.199 17.2863C184.799 17.4488 189.997 17.5 189.997 17.5C189.997 17.5 194.198 17.4925 196.997 17.2781C197.387 17.2281 198.239 17.2231 198.999 16.3744C199.597 15.7269 199.793 14.2569 199.793 14.2569C199.793 14.2569 199.993 12.5319 199.993 10.805V9.1875C199.993 7.4625 199.793 5.73625 199.793 5.73625L199.794 5.7375Z" fill="black"/>
<path d="M187.5 6.25V13.75L193.75 10" fill="white"/>
<path fill-rule="evenodd" clip-rule="evenodd" d="M288.52 0C289.333 0 290 0.64 290 1.44V18.56C290 19.3475 289.334 20 288.52 20H271.48C270.668 20 270 19.3462 270 18.56V1.44C270 0.64 270.666 0 271.48 0H288.52ZM274.454 6.2C274.904 6.18789 275.331 6.00064 275.645 5.67811C275.959 5.35558 276.135 4.92324 276.135 4.47312C276.135 4.02301 275.959 3.59067 275.645 3.26814C275.331 2.94561 274.904 2.75836 274.454 2.74625C273.494 2.74625 272.734 3.52 272.734 4.46625C272.734 5.42625 273.494 6.2 274.454 6.2ZM287.04 11.8125C287.04 9.24 286.494 7.26625 283.48 7.26625C282.04 7.26625 281.08 8.05375 280.68 8.8H280.64V7.49375H277.8V17.04H280.76V12.32C280.76 11.08 280.986 9.86625 282.534 9.86625C284.054 9.86625 284.08 11.2937 284.08 12.4V17.04H287.04V11.8125ZM272.96 17.0413H275.934V7.49375H272.96V17.0413Z" fill="black"/>
</svg>