<svg xmlns="http://www.w3.org/2000/svg" width="26" height="16" viewBox="0 0 26 16" fill="none">
<path d="M3.49278 15.6478C2.81153 15.6478 2.1834 15.4696 1.6084 15.1133C1.0334 14.7569 0.577148 14.2765 0.239648 13.6721C-0.0978515 13.0676 -0.266602 12.409 -0.266602 11.6964C-0.266602 11.0474 -0.125977 10.4397 0.155273 9.87336C0.442773 9.30706 0.833398 8.84256 1.32715 8.47988C1.2209 8.10447 1.16778 7.72905 1.16778 7.35364C1.16778 6.64099 1.33653 5.98243 1.67403 5.37796C2.01153 4.77348 2.46778 4.29626 3.04278 3.9463C3.61778 3.58998 4.24278 3.41182 4.91778 3.41182C5.01778 3.41182 5.16778 3.41818 5.36778 3.4309C5.92403 2.48919 6.66465 1.74473 7.58965 1.19752C8.5209 0.650315 9.5209 0.376709 10.5897 0.376709C11.6959 0.376709 12.7209 0.669404 13.6647 1.25479C14.6084 1.83381 15.3553 2.61963 15.9053 3.61225C16.4615 4.60486 16.7397 5.68656 16.7397 6.85733C17.2897 7.32183 17.7178 7.89131 18.024 8.56578C18.3303 9.24025 18.4834 9.95605 18.4834 10.7133C18.4834 11.6041 18.2709 12.4281 17.8459 13.1853C17.4272 13.9425 16.8584 14.5406 16.1397 14.9796C15.4272 15.425 14.6459 15.6478 13.7959 15.6478H3.49278ZM13.7959 14.2161C14.3896 14.2161 14.9365 14.0602 15.4365 13.7484C15.9428 13.4303 16.3428 13.004 16.6365 12.4695C16.9303 11.9286 17.0772 11.3432 17.0772 10.7133C17.0772 10.077 16.9303 9.49158 16.6365 8.9571C16.3428 8.41625 15.949 7.98993 15.4553 7.67815C15.399 7.64634 15.3584 7.61134 15.3334 7.57316C15.3147 7.53498 15.3053 7.48408 15.3053 7.42045C15.3053 7.36319 15.3084 7.28365 15.3147 7.18184C15.3272 7.08004 15.3334 6.97823 15.3334 6.87642C15.3334 5.96016 15.1209 5.1139 14.6959 4.33762C14.2709 3.56134 13.6928 2.94732 12.9615 2.49556C12.2365 2.03743 11.4459 1.80836 10.5897 1.80836C9.9397 1.80836 9.32403 1.94198 8.74278 2.20923C8.16153 2.4701 7.65215 2.83915 7.21465 3.31637C6.77715 3.79359 6.43965 4.33762 6.20215 4.94846C6.16465 5.05027 6.1084 5.10117 6.0334 5.10117C5.98965 5.10117 5.9459 5.08844 5.90215 5.06299C5.5959 4.91665 5.26778 4.84347 4.91778 4.84347C4.49278 4.84347 4.09902 4.95482 3.73653 5.17752C3.38027 5.40023 3.0959 5.70565 2.8834 6.09378C2.67715 6.47556 2.57403 6.89551 2.57403 7.35364C2.57403 7.65906 2.6209 7.95176 2.71465 8.23172C2.81465 8.50533 2.95215 8.75348 3.12715 8.97618C3.1709 9.02709 3.19278 9.07481 3.19278 9.11935C3.19278 9.17662 3.13965 9.2148 3.0334 9.23388C2.67715 9.30387 2.35528 9.45658 2.06778 9.69201C1.78028 9.92745 1.55215 10.2202 1.3834 10.5701C1.2209 10.9201 1.13965 11.2955 1.13965 11.6964C1.13965 12.1545 1.24278 12.5776 1.44903 12.9658C1.66153 13.3476 1.94903 13.653 2.31152 13.882C2.67402 14.1047 3.06778 14.2161 3.49278 14.2161H13.7959ZM9.34278 12.3072C9.15528 12.3072 8.98965 12.234 8.8459 12.0877L6.0334 9.23388C5.8959 9.0939 5.82715 8.92846 5.82715 8.73758C5.82715 8.54033 5.8959 8.37171 6.0334 8.23172C6.17715 8.08538 6.3459 8.0122 6.53965 8.0122C6.72715 8.0122 6.88965 8.08219 7.02715 8.22218L8.63965 9.85427V5.86472C8.63965 5.66111 8.70528 5.49249 8.83653 5.35887C8.97403 5.21888 9.14278 5.14889 9.34278 5.14889C9.52403 5.14889 9.68965 5.21888 9.8397 5.35887C9.9772 5.48613 10.0459 5.65474 10.0459 5.86472V9.85427L11.6678 8.22218C11.8053 8.08219 11.9678 8.0122 12.1553 8.0122C12.3303 8.0122 12.5022 8.09174 12.6709 8.25081C12.7959 8.37171 12.8584 8.53078 12.8584 8.72803C12.8584 8.93164 12.7897 9.10026 12.6522 9.23388L9.8397 12.0877C9.6834 12.234 9.51778 12.3072 9.34278 12.3072Z" fill="#1264A3"/>
</svg>