<svg xmlns="http://www.w3.org/2000/svg" width="25" height="18" viewBox="0 0 25 18" fill="none">
<path d="M8.56815 1.46973C6.53271 1.46973 4.49781 2.24373 2.94873 3.79281C-0.149251 6.89079 -0.149251 11.9335 2.94873 15.0316C6.04671 18.1294 11.0838 18.1294 14.1818 15.0316C17.28 11.9335 17.2855 6.89079 14.1876 3.79281C12.6385 2.24373 10.6034 1.46973 8.56797 1.46973H8.56815ZM8.00565 2.57223H8.02815V8.86665H4.77123C4.87563 7.01445 5.50833 5.19735 6.67815 3.79839C7.08675 3.30969 7.53441 2.90145 8.00565 2.57223ZM9.10815 2.57223H9.11931C9.61612 2.92003 10.0645 3.33237 10.4526 3.79839C11.6222 5.19735 12.2551 7.01427 12.3593 8.86665H9.10815V2.57205V2.57223ZM5.85123 3.10089C4.49979 4.71693 3.77097 6.77505 3.66315 8.86665H1.72257C1.84623 7.29615 2.50431 5.76165 3.70797 4.55781C4.32349 3.94059 5.05085 3.44616 5.85123 3.10089ZM11.2907 3.11205C12.0845 3.45757 12.8058 3.94999 13.4168 4.56339C14.6201 5.76669 15.2832 7.29759 15.4081 8.86647H13.4676C13.3599 6.78027 12.6354 4.72647 11.2907 3.11205ZM1.72257 9.94665H3.66297C3.76917 12.0415 4.49781 14.0992 5.85123 15.7178C5.05328 15.3737 4.32793 14.8812 3.71373 14.2665C2.50773 13.0605 1.84605 11.52 1.72257 9.94647V9.94665ZM4.77123 9.94665H8.02815V16.2578H8.01681C7.54089 15.927 7.09053 15.5135 6.67815 15.0203C5.50599 13.6186 4.87365 11.8026 4.77123 9.94647V9.94665ZM9.10815 9.94665H12.3593C12.2571 11.8024 11.6245 13.6186 10.4526 15.0203C10.0389 15.5148 9.58551 15.9264 9.10797 16.2578V9.94647L9.10815 9.94665ZM13.4676 9.94665H15.4137C15.2915 11.52 14.6235 13.0597 13.4168 14.2666C12.8016 14.884 12.0743 15.3784 11.2739 15.7232C11.2757 15.7212 11.2779 15.7196 11.2795 15.7176C12.6331 14.0991 13.3617 12.0413 13.4677 9.94629L13.4676 9.94665Z" fill="black"/>
</svg>

