<svg width="20" height="21" viewBox="0 0 20 21" fill="none" xmlns="http://www.w3.org/2000/svg">
<g clip-path="url(#clip0_27905_4300)">
<path d="M19.9956 4.45193C19.26 4.77881 18.4706 4.99943 17.6394 5.09756C18.4863 4.59006 19.1369 3.78631 19.4438 2.82881C18.65 3.29756 17.7731 3.64131 16.8388 3.82381C16.09 3.02693 15.0238 2.52881 13.8438 2.52881C11.5775 2.52881 9.74189 4.36506 9.74189 6.63068C9.74189 6.95193 9.77751 7.26568 9.84814 7.56568C6.43752 7.39318 3.41501 5.76006 1.39189 3.27881C1.03876 3.88506 0.83564 4.59006 0.83564 5.34131C0.83564 6.76631 1.56064 8.02068 2.66064 8.75693C1.98814 8.73506 1.35564 8.55068 0.802515 8.24443V8.29443C0.802515 10.2832 2.21501 11.9413 4.09251 12.3182C3.74876 12.4119 3.38626 12.4619 3.01126 12.4619C2.74689 12.4619 2.49064 12.4369 2.24064 12.3888C2.76189 14.0176 4.27814 15.2038 6.07189 15.2376C4.66877 16.3376 2.90001 16.9938 0.97814 16.9938C0.64689 16.9938 0.320015 16.9751 -0.000610352 16.9376C1.81564 18.1001 3.97189 18.7788 6.28876 18.7788C13.8338 18.7788 17.9606 12.5288 17.9606 7.10693C17.9606 6.92943 17.9556 6.75193 17.9481 6.57568C18.75 5.99756 19.445 5.27568 19.9956 4.45193Z" fill="black"/>
</g>
<defs>
<clipPath id="clip0_27905_4300">
<rect width="20" height="20" fill="white" transform="translate(0 0.653809)"/>
</clipPath>
</defs>
</svg>
