<?xml version="1.0" encoding="UTF-8"?>
<svg width="84px" height="70px" viewBox="0 0 84 70" version="1.1" xmlns="http://www.w3.org/2000/svg" xmlns:xlink="http://www.w3.org/1999/xlink">
    <title>Group</title>
    <g id="Page-1" stroke="none" stroke-width="1" fill="none" fill-rule="evenodd">
        <g id="Group" transform="translate(0.000000, 0.637820)" fill="#000000" fill-rule="nonzero">
            <path d="M6.000002,0.36217 C2.686302,0.36217 2e-06,3.04836 2e-06,6.36217 C2e-06,9.67576 2.686302,12.36217 6.000002,12.36217 L78.000002,12.36217 C81.313698,12.36217 84.000002,9.67576 84.000002,6.36217 C84.000002,3.04836 81.313698,0.36217 78.000002,0.36217 L6.000002,0.36217 Z M6.000002,28.3622 C2.686302,28.3622 2e-06,31.0484 2e-06,34.3622 C2e-06,37.6758 2.686302,40.3622 6.000002,40.3622 L78.000002,40.3622 C81.313698,40.3622 84.000002,37.6758 84.000002,34.3622 C84.000002,31.0484 81.313698,28.3622 78.000002,28.3622 L6.000002,28.3622 Z M6.000002,56.3622 C2.686302,56.3622 2e-06,59.0484 2e-06,62.3622 C2e-06,65.6758 2.686302,68.3622 6.000002,68.3622 L78.000002,68.3622 C81.313698,68.3622 84.000002,65.6758 84.000002,62.3622 C84.000002,59.0484 81.313698,56.3622 78.000002,56.3622 L6.000002,56.3622 Z" id="Shape"></path>
        </g>
    </g>
</svg>