<?xml version="1.0" encoding="iso-8859-1"?>
<!-- Generator: Adobe Illustrator 19.0.0, SVG Export Plug-In . SVG Version: 6.00 Build 0)  -->
<svg version="1.1" id="Capa_1" xmlns="http://www.w3.org/2000/svg" xmlns:xlink="http://www.w3.org/1999/xlink" x="0px" y="0px"
	 viewBox="0 0 512 512" style="enable-background:new 0 0 512 512;" xml:space="preserve">
<g>
	<g>
		<path d="M416.666,0H95.332C42.766,0,0,42.767,0,95.334v321.332C0,469.233,42.766,512,95.332,512h321.334
			C469.233,512,512,469.233,512,416.666V95.334C512,42.767,469.233,0,416.666,0z M400.6,391.5H111.4c-8.285,0-15-6.716-15-15
			s6.715-15,15-15h289.2c8.283,0,15,6.716,15,15S408.883,391.5,400.6,391.5z M400.6,271H111.4c-8.285,0-15-6.716-15-15
			s6.715-15,15-15h289.2c8.283,0,15,6.716,15,15S408.883,271,400.6,271z M400.6,150.5H111.4c-8.285,0-15-6.716-15-15s6.715-15,15-15
			h289.2c8.283,0,15,6.716,15,15S408.883,150.5,400.6,150.5z"/>
	</g>
</g>
<g>
</g>
<g>
</g>
<g>
</g>
<g>
</g>
<g>
</g>
<g>
</g>
<g>
</g>
<g>
</g>
<g>
</g>
<g>
</g>
<g>
</g>
<g>
</g>
<g>
</g>
<g>
</g>
<g>
</g>
</svg>
