<svg width="100" height="25" viewBox="0 0 100 25" fill="none" xmlns="http://www.w3.org/2000/svg">
<g id="Slack Logo">
<path id="Vector" d="M31.4177 19.7691L32.6339 16.9095C33.9655 17.9015 35.7024 18.4266 37.4397 18.4266C38.7137 18.4266 39.5242 17.9308 39.5242 17.1722C39.4951 15.0712 31.852 16.7052 31.7938 11.423C31.7648 8.73846 34.1391 6.66667 37.4979 6.66667C39.4951 6.66667 41.4932 7.1629 42.9116 8.30113L41.7752 11.2217C40.4701 10.3775 38.8582 9.78897 37.3239 9.78897C36.2817 9.78897 35.5866 10.2848 35.5866 10.9272C35.6156 12.999 43.3173 11.8608 43.4041 16.9095C43.4041 19.6525 41.0875 21.5785 37.7869 21.5785C35.3553 21.5785 33.1259 20.995 31.4172 19.7691H31.4177ZM79.8451 15.874C79.5382 16.4227 79.0916 16.8794 78.5513 17.1972C78.0109 17.5151 77.3963 17.6826 76.7704 17.6826C74.8196 17.6826 73.2384 16.0887 73.2384 14.1226C73.2384 12.1565 74.8196 10.5626 76.7704 10.5626C77.3963 10.5626 78.0109 10.7301 78.5513 11.048C79.0916 11.3658 79.5382 11.8225 79.8451 12.3712L83.2264 10.4832C81.9599 8.20631 79.5441 6.66667 76.7704 6.66667C72.6849 6.66667 69.373 10.0045 69.373 14.1226C69.373 18.2403 72.6849 21.5785 76.7704 21.5785C79.5441 21.5785 81.9599 20.0389 83.2264 17.762L79.8451 15.874ZM45.5982 21.2866H49.8252V0.460083H45.5986L45.5982 21.2866ZM85.3611 0.460083V21.2866H89.5881V15.047L94.597 21.2866H100L93.6304 13.8741L99.5366 6.95739H94.3653L89.5881 12.7079V0.460083H85.3611ZM62.8481 6.95823V8.65116C62.1534 7.48369 60.4452 6.66667 58.6501 6.66667C54.9442 6.66667 52.0201 9.96441 52.0201 14.108C52.0201 18.2516 54.9442 21.5785 58.6501 21.5785C60.4452 21.5785 62.1534 20.7615 62.8481 19.594V21.2866H67.0752V6.95823H62.8481ZM62.8481 15.9028C62.2402 16.9241 60.9663 17.6822 59.5479 17.6822C57.5967 17.6822 56.0155 16.0887 56.0155 14.1226C56.0155 12.1565 57.5967 10.5626 59.5479 10.5626C60.9663 10.5626 62.2402 11.3503 62.8481 12.4004V15.9028Z" fill="white"/>
<path id="Vector_2" d="M9.09438 0C7.72453 0 6.61421 1.11943 6.61421 2.49993C6.61388 2.82789 6.67777 3.15271 6.80223 3.45584C6.9267 3.75897 7.10929 4.03447 7.3396 4.26661C7.5699 4.49875 7.84341 4.68298 8.14449 4.80879C8.44558 4.93461 8.76835 4.99953 9.09438 4.99986H11.575V2.49993C11.5755 1.83753 11.3145 1.20204 10.8493 0.733225C10.3841 0.264409 9.75286 0.00066438 9.09438 0ZM9.09438 6.66648H2.48017C1.11033 6.66648 0 7.78591 0 9.16682C0 10.5473 1.11033 11.6668 2.48017 11.6668H9.09479C10.4642 11.6668 11.575 10.5473 11.575 9.16682C11.575 7.78591 10.4642 6.66648 9.09438 6.66648Z" fill="#097EFF"/>
<path id="Vector_3" d="M24.8035 9.16682C24.8035 7.78591 23.6927 6.66648 22.3229 6.66648C20.953 6.66648 19.8427 7.78591 19.8427 9.16682V11.6668H22.3229C22.9814 11.6661 23.6126 11.4023 24.0778 10.9335C24.543 10.4647 24.804 9.82922 24.8035 9.16682ZM18.1893 9.16682V2.49993C18.1898 1.83753 17.9288 1.20204 17.4636 0.733225C16.9984 0.264409 16.3672 0.00066438 15.7087 0C14.3388 0 13.2285 1.11943 13.2285 2.49993V9.16641C13.2285 10.5477 14.3388 11.6672 15.7087 11.6672C16.3672 11.6665 16.9984 11.4028 17.4636 10.9339C17.9288 10.4651 18.1898 9.82964 18.1893 9.16724" fill="#097EFF"/>
<path id="Vector_4" d="M15.7087 25C16.3672 24.9993 16.9984 24.7356 17.4636 24.2668C17.9288 23.798 18.1898 23.1625 18.1893 22.5001C18.1898 21.8377 17.9288 21.2022 17.4636 20.7334C16.9984 20.2646 16.3672 20.0008 15.7087 20.0001H13.2285V22.5001C13.2285 23.8806 14.3388 25 15.7087 25ZM15.7087 18.3335H22.3233C23.6927 18.3335 24.8035 17.2141 24.8035 15.8332C24.804 15.1708 24.543 14.5353 24.0778 14.0665C23.6126 13.5977 22.9814 13.3339 22.3229 13.3333H15.7087C14.3388 13.3333 13.2285 14.4527 13.2285 15.8332C13.2282 16.1611 13.2921 16.486 13.4165 16.7891C13.541 17.0922 13.7236 17.3677 13.9539 17.5999C14.1842 17.832 14.4577 18.0162 14.7588 18.142C15.0599 18.2679 15.3827 18.3328 15.7087 18.3331" fill="#ECB12F"/>
<path id="Vector_5" d="M1.25143e-06 15.8332C-0.000326086 16.1611 0.0635658 16.486 0.188029 16.7891C0.312492 17.0922 0.495089 17.3677 0.725394 17.5999C0.9557 17.832 1.2292 18.0162 1.53029 18.142C1.83137 18.2679 2.15414 18.3328 2.48017 18.3331C3.13865 18.3324 3.76991 18.0687 4.2351 17.5999C4.70029 17.1311 4.96131 16.4956 4.96076 15.8332V13.3333H2.48017C1.11033 13.3333 1.25143e-06 14.4527 1.25143e-06 15.8332ZM6.61421 15.8332V22.4997C6.61421 23.8806 7.72453 25 9.09438 25C9.75286 24.9993 10.3841 24.7356 10.8493 24.2668C11.3145 23.798 11.5755 23.1625 11.575 22.5001V15.8332C11.5753 15.5052 11.5114 15.1803 11.3869 14.8772C11.2624 14.574 11.0798 14.2985 10.8494 14.0664C10.6191 13.8342 10.3455 13.65 10.0444 13.5242C9.74326 13.3984 9.42044 13.3335 9.09438 13.3333C7.72453 13.3333 6.61421 14.4527 6.61421 15.8332Z" fill="#ECB12F"/>
</g>
</svg>
