<!-- Generated by IcoMoon.io -->
<svg version="1.1" xmlns="http://www.w3.org/2000/svg" width="512" height="512" viewBox="0 0 512 512">
<title>youtube</title>
<g id="icomoon-ignore">
</g>
<path d="M506.9 153.6c0 0-5-35.3-20.4-50.8-19.5-20.4-41.3-20.5-51.3-21.7-71.6-5.2-179.1-5.2-179.1-5.2h-0.2c0 0-107.5 0-179.1 5.2-10 1.2-31.8 1.3-51.3 21.7-15.4 15.5-20.3 50.8-20.3 50.8s-5.1 41.4-5.1 82.9v38.8c0 41.4 5.1 82.9 5.1 82.9s5 35.3 20.3 50.8c19.5 20.4 45.1 19.7 56.5 21.9 41 3.9 174.1 5.1 174.1 5.1s107.6-0.2 179.2-5.3c10-1.2 31.8-1.3 51.3-21.7 15.4-15.5 20.4-50.8 20.4-50.8s5.1-41.4 5.1-82.9v-38.8c-0.1-41.4-5.2-82.9-5.2-82.9zM203.1 322.4v-143.9l138.3 72.2-138.3 71.7z"></path>
</svg>
