<svg width="21" height="21" viewBox="0 0 21 21" fill="none" xmlns="http://www.w3.org/2000/svg">
<g clip-path="url(#clip0_27905_4302)">
<path fill-rule="evenodd" clip-rule="evenodd" d="M19.5604 0.653811H1.77288C1.62751 0.653482 1.48351 0.681871 1.34915 0.737348C1.21478 0.792826 1.0927 0.874299 0.989907 0.977089C0.887116 1.07988 0.805643 1.20196 0.750166 1.33633C0.694688 1.47069 0.666299 1.61469 0.666629 1.76006V19.5476C0.666629 20.1601 1.16038 20.6538 1.77288 20.6538H11.3466V12.9076H8.73413V9.90756H11.3466V7.67881C11.3466 5.09256 12.9341 3.69256 15.2266 3.69256C16.3204 3.69256 17.2804 3.75881 17.5604 3.81256V6.50631H15.9466C14.6929 6.50631 14.4666 7.09256 14.4666 7.97256V9.90631H17.4404L17.0529 12.9063H14.4666V20.6538H19.5604C20.1729 20.6538 20.6666 20.1601 20.6666 19.5476V1.76006C20.667 1.61469 20.6386 1.47069 20.5831 1.33633C20.5276 1.20196 20.4461 1.07988 20.3434 0.977089C20.2406 0.874299 20.1185 0.792826 19.9841 0.737348C19.8497 0.681871 19.7057 0.653482 19.5604 0.653811Z" fill="black"/>
</g>
<defs>
<clipPath id="clip0_27905_4302">
<rect width="20" height="20" fill="white" transform="translate(0.666626 0.653809)"/>
</clipPath>
</defs>
</svg>
