<svg width="21" height="21" viewBox="0 0 21 21" fill="none" xmlns="http://www.w3.org/2000/svg">
<g clip-path="url(#clip0_27905_4304)">
<path d="M20.1271 6.39131C20.1271 6.39131 19.9321 4.92006 19.3334 4.27256C18.5721 3.42381 17.7209 3.41881 17.3296 3.37068C14.5315 3.15381 10.3346 3.15381 10.3346 3.15381H10.3252C10.3252 3.15381 6.12837 3.15381 3.3315 3.37068C2.94025 3.41881 2.089 3.42381 1.32775 4.27256C0.730249 4.92006 0.533374 6.39131 0.533374 6.39131C0.533374 6.39131 0.333374 8.11631 0.333374 9.84131V11.4601C0.333374 13.1863 0.533374 14.9113 0.533374 14.9113C0.533374 14.9113 0.728374 16.3813 1.32712 17.0276C2.08962 17.8763 3.08712 17.8507 3.53212 17.9401C5.13212 18.1026 10.3302 18.1538 10.3302 18.1538C10.3302 18.1538 14.5315 18.1463 17.3302 17.9319C17.7202 17.8819 18.5721 17.8769 19.3327 17.0282C19.9302 16.3807 20.1265 14.9107 20.1265 14.9107C20.1265 14.9107 20.3265 13.1857 20.3265 11.4588V9.84131C20.3265 8.11631 20.1265 6.39006 20.1265 6.39006L20.1271 6.39131Z" fill="black"/>
<path d="M7.83337 6.90381V14.4038L14.0834 10.6538" fill="white"/>
</g>
<defs>
<clipPath id="clip0_27905_4304">
<rect width="20" height="20" fill="white" transform="translate(0.333374 0.653809)"/>
</clipPath>
</defs>
</svg>
