<svg width="20" height="21" viewBox="0 0 20 21" fill="none" xmlns="http://www.w3.org/2000/svg">
<g clip-path="url(#clip0_27905_4307)">
<path fill-rule="evenodd" clip-rule="evenodd" d="M18.52 0.653809C19.3325 0.653809 20 1.29381 20 2.09381V19.2138C20 20.0013 19.3337 20.6538 18.52 20.6538H1.48C0.6675 20.6538 0 20.0001 0 19.2138V2.09381C0 1.29381 0.66625 0.653809 1.48 0.653809H18.52ZM4.45375 6.85381C4.9037 6.8417 5.33116 6.65445 5.64513 6.33192C5.9591 6.00939 6.13479 5.57705 6.13479 5.12693C6.13479 4.67682 5.9591 4.24448 5.64513 3.92195C5.33116 3.59941 4.9037 3.41217 4.45375 3.40006C3.49375 3.40006 2.73375 4.17381 2.73375 5.12006C2.73375 6.08006 3.49375 6.85381 4.45375 6.85381ZM17.04 12.4663C17.04 9.89381 16.4937 7.92006 13.48 7.92006C12.04 7.92006 11.08 8.70756 10.68 9.45381H10.64V8.14756H7.8V17.6938H10.76V12.9738C10.76 11.7338 10.9863 10.5201 12.5338 10.5201C14.0538 10.5201 14.08 11.9476 14.08 13.0538V17.6938H17.04V12.4663ZM2.96 17.6951H5.93375V8.14756H2.96V17.6951Z" fill="black"/>
</g>
<defs>
<clipPath id="clip0_27905_4307">
<rect width="20" height="20" fill="white" transform="translate(0 0.653809)"/>
</clipPath>
</defs>
</svg>
