<svg width="21" height="22" viewBox="0 0 21 22" fill="none" xmlns="http://www.w3.org/2000/svg">
<path d="M3.02 6.5155C2.72667 6.5155 2.48333 6.42217 2.29 6.2355C2.09667 6.04217 2 5.80217 2 5.5155C2 5.22884 2.09667 4.99217 2.29 4.8055C2.48333 4.61217 2.72667 4.5155 3.02 4.5155H17.98C18.2733 4.5155 18.5167 4.61217 18.71 4.8055C18.9033 4.99217 19 5.22884 19 5.5155C19 5.80217 18.9033 6.04217 18.71 6.2355C18.5167 6.42217 18.2733 6.5155 17.98 6.5155H3.02ZM3.02 11.5155C2.72667 11.5155 2.48333 11.4222 2.29 11.2355C2.09667 11.0422 2 10.8022 2 10.5155C2 10.2288 2.09667 9.99217 2.29 9.8055C2.48333 9.61217 2.72667 9.5155 3.02 9.5155H17.98C18.2733 9.5155 18.5167 9.61217 18.71 9.8055C18.9033 9.99217 19 10.2288 19 10.5155C19 10.8022 18.9033 11.0422 18.71 11.2355C18.5167 11.4222 18.2733 11.5155 17.98 11.5155H3.02ZM3.02 16.5155C2.72667 16.5155 2.48333 16.4222 2.29 16.2355C2.09667 16.0422 2 15.8022 2 15.5155C2 15.2288 2.09667 14.9922 2.29 14.8055C2.48333 14.6122 2.72667 14.5155 3.02 14.5155H17.98C18.2733 14.5155 18.5167 14.6122 18.71 14.8055C18.9033 14.9922 19 15.2288 19 15.5155C19 15.8022 18.9033 16.0422 18.71 16.2355C18.5167 16.4222 18.2733 16.5155 17.98 16.5155H3.02Z" fill="white"/>
</svg>
