<svg aria-hidden="true" style="position: absolute; width: 0; height: 0; overflow: hidden;" version="1.1"
    xmlns="http://www.w3.org/2000/svg"
    xmlns:xlink="http://www.w3.org/1999/xlink">
    <defs>
        <symbol id="burger" viewBox="0 0 28 32">
            <path d="M1 8.25h26c0.552 0 1-0.448 1-1v-2.5c0-0.552-0.448-1-1-1h-26c-0.552 0-1 0.448-1 1v2.5c0 0.552 0.448 1 1 1zM1 18.25h26c0.552 0 1-0.448 1-1v-2.5c0-0.552-0.448-1-1-1h-26c-0.552 0-1 0.448-1 1v2.5c0 0.552 0.448 1 1 1zM1 28.25h26c0.552 0 1-0.448 1-1v-2.5c0-0.552-0.448-1-1-1h-26c-0.552 0-1 0.448-1 1v2.5c0 0.552 0.448 1 1 1z" fill="currentColor"></path>
        </symbol>
        <symbol id="chevron-down" viewBox="0 0 28 32">
            <path d="M12.939 23.842l-12.146-12.146c-0.586-0.586-0.586-1.536 0-2.121l1.417-1.417c0.585-0.585 1.533-0.586 2.119-0.002l9.672 9.626 9.672-9.626c0.586-0.583 1.534-0.582 2.119 0.002l1.417 1.417c0.586 0.586 0.586 1.536 0 2.121l-12.146 12.146c-0.586 0.586-1.536 0.586-2.121 0z" fill="currentColor"></path>
        </symbol>
        <symbol id="facebook" viewBox="0 0 20 32">
            <path d="M17.446 18l0.889-5.791h-5.557v-3.758c0-1.584 0.776-3.129 3.265-3.129h2.526v-4.931s-2.293-0.391-4.484-0.391c-4.576 0-7.567 2.774-7.567 7.795v4.414h-5.087v5.791h5.087v14h6.261v-14z" fill="currentColor"></path>
        </symbol>
        <symbol id="twitter" viewBox="0 0 32 32">
            <path d="M28.711 9.482c0.020 0.284 0.020 0.569 0.020 0.853 0 8.67-6.599 18.66-18.66 18.66-3.716 0-7.168-1.076-10.071-2.944 0.528 0.061 1.036 0.081 1.584 0.081 3.066 0 5.888-1.035 8.142-2.802-2.883-0.061-5.3-1.949-6.132-4.548 0.406 0.061 0.812 0.102 1.239 0.102 0.589 0 1.178-0.081 1.726-0.223-3.005-0.609-5.259-3.249-5.259-6.437v-0.081c0.873 0.487 1.888 0.792 2.964 0.832-1.766-1.178-2.924-3.188-2.924-5.462 0-1.218 0.325-2.335 0.893-3.31 3.228 3.98 8.081 6.579 13.523 6.863-0.101-0.487-0.162-0.995-0.162-1.502 0-3.614 2.924-6.558 6.558-6.558 1.888 0 3.594 0.792 4.792 2.071 1.482-0.284 2.904-0.832 4.162-1.584-0.487 1.523-1.523 2.802-2.883 3.614 1.32-0.142 2.599-0.508 3.777-1.015-0.893 1.299-2.010 2.457-3.289 3.391z" fill="currentColor"></path>
        </symbol>
        <symbol id="youtube" viewBox="0 0 36 32">
            <path d="M34.353 7.755c-0.393-1.478-1.549-2.642-3.018-3.037-2.662-0.718-13.336-0.718-13.336-0.718s-10.674 0-13.336 0.718c-1.469 0.395-2.625 1.559-3.018 3.037-0.713 2.679-0.713 8.269-0.713 8.269s0 5.59 0.713 8.269c0.393 1.478 1.549 2.594 3.018 2.989 2.662 0.718 13.336 0.718 13.336 0.718s10.674 0 13.336-0.718c1.469-0.395 2.625-1.511 3.018-2.989 0.713-2.679 0.713-8.269 0.713-8.269s0-5.59-0.713-8.269zM14.509 21.099v-10.15l8.921 5.075-8.921 5.075z" fill="currentColor"></path>
        </symbol>
    </defs>
</svg>
