<svg width="22" height="22" viewBox="0 0 22 22" fill="none" xmlns="http://www.w3.org/2000/svg">
<path d="M19.5313 19.0878L14.5753 14.1318C15.7662 12.7021 16.3601 10.8682 16.2334 9.01171C16.1067 7.15523 15.2691 5.41906 13.8949 4.1644C12.5207 2.90973 10.7157 2.23316 8.85538 2.27543C6.99505 2.3177 5.22264 3.07555 3.90685 4.39134C2.59106 5.70713 1.8332 7.47955 1.79093 9.33987C1.74866 11.2002 2.42523 13.0052 3.6799 14.3794C4.93457 15.7536 6.67073 16.5912 8.52722 16.7179C10.3837 16.8446 12.2176 16.2507 13.6473 15.0598L18.6033 20.0158L19.5313 19.0878ZM3.12503 9.51578C3.12503 8.34763 3.47143 7.20572 4.12041 6.23444C4.7694 5.26316 5.69183 4.50614 6.77106 4.05911C7.85028 3.61208 9.03783 3.49512 10.1835 3.72301C11.3292 3.95091 12.3816 4.51342 13.2076 5.33943C14.0336 6.16543 14.5961 7.21782 14.824 8.36352C15.0519 9.50922 14.935 10.6968 14.4879 11.776C14.0409 12.8552 13.2839 13.7777 12.3126 14.4266C11.3413 15.0756 10.1994 15.422 9.03128 15.422C7.46538 15.4203 5.96411 14.7975 4.85685 13.6902C3.74959 12.5829 3.12677 11.0817 3.12503 9.51578Z" fill="white"/>
<path fill-rule="evenodd" clip-rule="evenodd" d="M20.2384 19.0878L18.6033 20.7229L13.607 15.7265C12.1368 16.8104 10.3253 17.3418 8.49317 17.2167C6.5083 17.0813 4.65208 16.1858 3.31065 14.7165C1.96922 13.2473 1.24587 11.3175 1.29106 9.32851C1.33625 7.33954 2.14652 5.44457 3.55329 4.03779C4.96007 2.63101 6.85505 1.82075 8.84402 1.77556C10.833 1.73036 12.7628 2.45372 14.232 3.79515C15.7013 5.13658 16.5968 6.9928 16.7322 8.97766C16.8573 10.8098 16.3259 12.6213 15.242 14.0915L20.2384 19.0878ZM14.5753 14.1318C15.7662 12.7021 16.3601 10.8682 16.2334 9.01171C16.1067 7.15523 15.2691 5.41906 13.8949 4.1644C12.5207 2.90973 10.7157 2.23316 8.85538 2.27543C6.99505 2.3177 5.22264 3.07556 3.90685 4.39134C2.59106 5.70713 1.8332 7.47955 1.79093 9.33987C1.74866 11.2002 2.42523 13.0052 3.6799 14.3794C4.93457 15.7536 6.67073 16.5912 8.52722 16.7179C10.3837 16.8446 12.2176 16.2507 13.6473 15.0598L18.6033 20.0158L19.5313 19.0878L14.5753 14.1318ZM4.53615 6.51223C3.94214 7.40121 3.62508 8.44637 3.62503 9.51554C3.6267 10.9489 4.19685 12.3231 5.2104 13.3367C6.22403 14.3503 7.59835 14.9204 9.03183 14.922C10.1009 14.9219 11.1459 14.6049 12.0348 14.0109C12.9239 13.4169 13.6168 12.5725 14.026 11.5847C14.4352 10.5968 14.5423 9.50978 14.3336 8.46107C14.125 7.41236 13.6102 6.44906 12.8541 5.69298C12.098 4.9369 11.1347 4.42201 10.086 4.21341C9.03728 4.00481 7.95026 4.11187 6.9624 4.52105C5.97453 4.93024 5.13019 5.62317 4.53615 6.51223ZM9.03128 15.422C10.1994 15.422 11.3413 15.0756 12.3126 14.4266C13.2839 13.7777 14.0409 12.8552 14.4879 11.776C14.935 10.6968 15.0519 9.50922 14.824 8.36352C14.5961 7.21782 14.0336 6.16543 13.2076 5.33943C12.3816 4.51342 11.3292 3.95091 10.1835 3.72301C9.03783 3.49512 7.85028 3.61208 6.77106 4.05911C5.69183 4.50614 4.7694 5.26316 4.12041 6.23444C3.47143 7.20572 3.12503 8.34763 3.12503 9.51578C3.12677 11.0817 3.74959 12.5829 4.85685 13.6902C5.96411 14.7975 7.46538 15.4203 9.03128 15.422Z" fill="white"/>
</svg>
