<svg width="25" height="19" viewBox="0 0 25 19" fill="none" xmlns="http://www.w3.org/2000/svg">
<g id="Frame">
<path id="Vector" d="M7.95707 1.71118C5.92163 1.71118 3.88673 2.48518 2.33765 4.03426C-0.760335 7.13224 -0.760335 12.1749 2.33765 15.2731C5.43563 18.3709 10.4727 18.3709 13.5707 15.2731C16.6689 12.1749 16.6745 7.13224 13.5765 4.03426C12.0274 2.48518 9.99233 1.71118 7.95689 1.71118H7.95707ZM7.39457 2.81368H7.41707V9.1081H4.16015C4.26455 7.2559 4.89725 5.4388 6.06707 4.03984C6.47567 3.55114 6.92333 3.1429 7.39457 2.81368ZM8.49707 2.81368H8.50823C9.00504 3.16149 9.45339 3.57382 9.84149 4.03984C11.0111 5.4388 11.644 7.25572 11.7482 9.1081H8.49707V2.8135V2.81368ZM5.24015 3.34234C3.88871 4.95838 3.15989 7.0165 3.05207 9.1081H1.11149C1.23515 7.5376 1.89323 6.0031 3.09689 4.79926C3.71241 4.18205 4.43977 3.68761 5.24015 3.34234ZM10.6796 3.3535C11.4734 3.69903 12.1948 4.19144 12.8057 4.80484C14.009 6.00814 14.6721 7.53904 14.7971 9.10792H12.8565C12.7488 7.02172 12.0243 4.96792 10.6796 3.3535ZM1.11149 10.1881H3.05189C3.15809 12.2829 3.88673 14.3407 5.24015 15.9593C4.4422 15.6151 3.71685 15.1226 3.10265 14.5079C1.89665 13.3019 1.23497 11.7615 1.11149 10.1879V10.1881ZM4.16015 10.1881H7.41707V16.4993H7.40573C6.92981 16.1684 6.47945 15.755 6.06707 15.2618C4.89491 13.8601 4.26257 12.0441 4.16015 10.1879V10.1881ZM8.49707 10.1881H11.7482C11.646 12.0439 11.0135 13.8601 9.84149 15.2618C9.42785 15.7562 8.97443 16.1679 8.49689 16.4993V10.1879L8.49707 10.1881ZM12.8565 10.1881H14.8026C14.6804 11.7615 14.0124 13.3012 12.8057 14.5081C12.1906 15.1255 11.4633 15.6198 10.6628 15.9647C10.6646 15.9627 10.6668 15.9611 10.6684 15.9591C12.022 14.3405 12.7506 12.2828 12.8567 10.1877L12.8565 10.1881Z" fill="black"/>
</g>
</svg>
